<svg width="551" height="655" viewBox="0 0 551 655" fill="none" xmlns="http://www.w3.org/2000/svg">
<g clip-path="url(#clip0_122_2003)">
<path fill-rule="evenodd" clip-rule="evenodd" d="M350.607 412.346L471 622H334.596C325.647 622 317.38 617.216 312.921 609.458L274.985 543.451L350.607 412.346ZM136.673 65C145.626 65 153.895 69.787 158.353 77.5505L236.655 213.908L160.983 345.098L0 65H136.673Z" fill="url(#paint0_linear_122_2003)"/>
<path fill-rule="evenodd" clip-rule="evenodd" d="M186.068 630.06L551 0H427.3C409.442 0 392.94 9.52393 384.006 24.9862L20 655H142.802C160.64 655 177.128 645.496 186.068 630.06Z" fill="url(#paint1_linear_122_2003)"/>
</g>
<defs>
<linearGradient id="paint0_linear_122_2003" x1="6710.77" y1="65" x2="40064.9" y2="57791.6" gradientUnits="userSpaceOnUse">
<stop offset="0.000863882" stop-color="#FF0000"/>
<stop offset="1" stop-color="#FF0033"/>
</linearGradient>
<linearGradient id="paint1_linear_122_2003" x1="44019" y1="-0.00201052" x2="6223.71" y2="63899.2" gradientUnits="userSpaceOnUse">
<stop stop-color="#00FF99"/>
<stop offset="1" stop-color="#00FF55"/>
</linearGradient>
<clipPath id="clip0_122_2003">
<rect width="551" height="655" fill="white"/>
</clipPath>
</defs>
</svg>
